<svg width="512" height="512" viewBox="0 0 512 512" xmlns="http://www.w3.org/2000/svg">
  <!-- Background circle -->
  <circle cx="256" cy="256" r="256" fill="#4A00E0"/>
  <circle cx="256" cy="256" r="250" fill="none" stroke="#7B2FF7" stroke-width="5"/>

  <!-- Decorative dots -->
  <g fill="#FF5722" opacity="0.7">
    <circle cx="256" cy="18" r="5"/>
    <circle cx="370" cy="48" r="5"/>
    <circle cx="452" cy="130" r="5"/>
    <circle cx="482" cy="256" r="5"/>
    <circle cx="452" cy="382" r="5"/>
    <circle cx="370" cy="464" r="5"/>
    <circle cx="256" cy="494" r="5"/>
    <circle cx="142" cy="464" r="5"/>
    <circle cx="60" cy="382" r="5"/>
    <circle cx="30" cy="256" r="5"/>
    <circle cx="60" cy="130" r="5"/>
    <circle cx="142" cy="48" r="5"/>
  </g>

  <!-- Steam -->
  <g stroke="#FF9800" stroke-width="4" stroke-linecap="round" fill="none">
    <path d="M206 148 Q198 130 206 114 Q214 98 206 82"/>
    <path d="M256 142 Q248 124 256 108 Q264 92 256 76"/>
    <path d="M306 148 Q298 130 306 114 Q314 98 306 82"/>
  </g>

  <!-- Pot body -->
  <rect x="148" y="200" width="216" height="158" rx="18" fill="#FF5722"/>
  <rect x="148" y="200" width="216" height="158" rx="18" fill="none" stroke="#FF7043" stroke-width="3"/>

  <!-- Pot shine -->
  <ellipse cx="200" cy="230" rx="24" ry="14" fill="#FF7043" opacity="0.5"/>

  <!-- Pot lid -->
  <rect x="134" y="182" width="244" height="28" rx="9" fill="#E53935"/>
  <rect x="134" y="182" width="244" height="28" rx="9" fill="none" stroke="#EF5350" stroke-width="2.5"/>

  <!-- Lid handle -->
  <rect x="228" y="156" width="56" height="28" rx="7" fill="#E53935"/>

  <!-- Pot handles -->
  <rect x="100" y="214" width="50" height="26" rx="9" fill="#E53935"/>
  <rect x="362" y="214" width="50" height="26" rx="9" fill="#E53935"/>

  <!-- Spice dots -->
  <circle cx="210" cy="278" r="7" fill="#FF9800"/>
  <circle cx="240" cy="302" r="5" fill="#FFEB3B"/>
  <circle cx="272" cy="274" r="8" fill="#00BFA5"/>
  <circle cx="304" cy="298" r="6" fill="#FF9800"/>
  <circle cx="256" cy="322" r="7" fill="#FFEB3B"/>

  <!-- App name -->
  <text x="256" y="400" text-anchor="middle" font-family="Arial Black, Arial, sans-serif" font-size="52" font-weight="900" fill="#FFFFFF" letter-spacing="1">PANTRY</text>
  <text x="256" y="455" text-anchor="middle" font-family="Arial Black, Arial, sans-serif" font-size="52" font-weight="900" fill="#FF9800" letter-spacing="1">PANDIT</text>
</svg>
